# xmcd
#
# Track frame offsets: 
#        150
#        16290
#        31118
#        46767
#        60275
#        96135
#        112281
#        124716
#        133156
#        150015
#        163477
#        182514
#
# Disc length: 2665 seconds
#
# Revision: 0
# Processed by: cddbd v1.5.2PL0 Copyright (c) Steve Scherf et al.
# Submitted via: ExactAudioCopyFreeDBPlugin 1.0
#
DISCID=900a670c
DTITLE=Charlie Parr - Roustabout
DYEAR=2009
DGENRE=Blues
TTITLE0=Don't Send Your Child To War
TTITLE1=Far Cry From Fargo
TTITLE2=Walk Around My Bedside
TTITLE3=Warmin' By The Devil's Fire
TTITLE4=Midnight Has Come and Gone
TTITLE5=Come Along and See
TTITLE6=Adrift In Lake Superior At Sunrise
TTITLE7=Cropduster
TTITLE8=Last Payday At Coal Creek
TTITLE9=The B&J Ain't Nothin' But A Hole In The Ground
TTITLE10=Farmer
TTITLE11=God Moves On The Water
EXTD=
EXTT0=
EXTT1=
EXTT2=
EXTT3=
EXTT4=
EXTT5=
EXTT6=
EXTT7=
EXTT8=
EXTT9=
EXTT10=
EXTT11=
PLAYORDER=
